<svg width="15" height="15" viewBox="0 0 15 15" fill="none" xmlns="http://www.w3.org/2000/svg">
<path d="M8.27143 0C9.11518 0.00225 9.54343 0.00675 9.91318 0.01725L10.0587 0.0225C10.2267 0.0285 10.3924 0.036 10.5927 0.045C11.3907 0.0825 11.9352 0.2085 12.4129 0.39375C12.9079 0.58425 13.3249 0.84225 13.7419 1.2585C14.1234 1.6333 14.4186 2.08685 14.6067 2.5875C14.7919 3.06525 14.9179 3.60975 14.9554 4.4085C14.9644 4.608 14.9719 4.77375 14.9779 4.9425L14.9824 5.088C14.9937 5.457 14.9982 5.88525 14.9997 6.729L15.0004 7.2885V8.271C15.0023 8.81805 14.9965 9.36511 14.9832 9.912L14.9787 10.0575C14.9727 10.2262 14.9652 10.392 14.9562 10.5915C14.9187 11.3903 14.7912 11.934 14.6067 12.4125C14.4186 12.9131 14.1234 13.3667 13.7419 13.7415C13.3671 14.123 12.9136 14.4181 12.4129 14.6063C11.9352 14.7915 11.3907 14.9175 10.5927 14.955L10.0587 14.9775L9.91318 14.982C9.54343 14.9925 9.11518 14.9978 8.27143 14.9993L7.71193 15H6.73018C6.18287 15.0019 5.63557 14.9962 5.08843 14.9827L4.94293 14.9783C4.76488 14.9715 4.58688 14.9638 4.40893 14.955C3.61093 14.9175 3.06643 14.7915 2.58793 14.6063C2.08755 14.418 1.63426 14.1229 1.25968 13.7415C0.877885 13.3668 0.582508 12.9132 0.394177 12.4125C0.208927 11.9347 0.0829266 11.3903 0.0454266 10.5915L0.0229266 10.0575L0.0191767 9.912C0.0053512 9.36511 -0.000899471 8.81806 0.000426598 8.271V6.729C-0.00164932 6.18195 0.00385126 5.6349 0.0169267 5.088L0.0221766 4.9425C0.0281766 4.77375 0.0356766 4.608 0.0446766 4.4085C0.0821766 3.60975 0.208177 3.066 0.393427 2.5875C0.582197 2.08665 0.878094 1.63308 1.26043 1.2585C1.63479 0.877162 2.08782 0.582055 2.58793 0.39375C3.06643 0.2085 3.61018 0.0825 4.40893 0.045C4.60843 0.036 4.77493 0.0285 4.94293 0.0225L5.08843 0.0179999C5.63532 0.00467453 6.18237 -0.00107602 6.72943 0.000749946L8.27143 0ZM7.50043 3.75C6.50586 3.75 5.55204 4.14509 4.84878 4.84835C4.14551 5.55161 3.75043 6.50544 3.75043 7.5C3.75043 8.49456 4.14551 9.44839 4.84878 10.1517C5.55204 10.8549 6.50586 11.25 7.50043 11.25C8.49499 11.25 9.44882 10.8549 10.1521 10.1517C10.8553 9.44839 11.2504 8.49456 11.2504 7.5C11.2504 6.50544 10.8553 5.55161 10.1521 4.84835C9.44882 4.14509 8.49499 3.75 7.50043 3.75ZM7.50043 5.25C7.7959 5.24995 8.08849 5.3081 8.36149 5.42113C8.63449 5.53416 8.88256 5.69985 9.09153 5.90874C9.30049 6.11764 9.46627 6.36565 9.57939 6.63862C9.6925 6.91158 9.75075 7.20415 9.7508 7.49963C9.75085 7.7951 9.6927 8.08769 9.57967 8.36069C9.46665 8.63369 9.30095 8.88176 9.09206 9.09072C8.88316 9.29969 8.63515 9.46547 8.36219 9.57859C8.08922 9.6917 7.79665 9.74995 7.50118 9.75C6.90444 9.75 6.33214 9.51295 5.91019 9.09099C5.48823 8.66903 5.25118 8.09674 5.25118 7.5C5.25118 6.90326 5.48823 6.33097 5.91019 5.90901C6.33214 5.48705 6.90444 5.25 7.50118 5.25M11.4387 2.625C11.19 2.625 10.9516 2.72377 10.7758 2.89959C10.5999 3.0754 10.5012 3.31386 10.5012 3.5625C10.5012 3.81114 10.5999 4.0496 10.7758 4.22541C10.9516 4.40123 11.19 4.5 11.4387 4.5C11.6873 4.5 11.9258 4.40123 12.1016 4.22541C12.2774 4.0496 12.3762 3.81114 12.3762 3.5625C12.3762 3.31386 12.2774 3.0754 12.1016 2.89959C11.9258 2.72377 11.6873 2.625 11.4387 2.625Z" fill="#183FF6"/>
</svg>
