<svg width="15" height="14" viewBox="0 0 15 14" fill="none" xmlns="http://www.w3.org/2000/svg">
<path fill-rule="evenodd" clip-rule="evenodd" d="M12.6193 12.2176V12.2161L12.6328 12.1839L14.8821 0.843885V0.807885C14.8821 0.525135 14.7771 0.278385 14.5506 0.130635C14.3518 0.000884738 14.1231 -0.0081152 13.9626 0.0038848C13.8132 0.0175142 13.6658 0.0476994 13.5231 0.0938847C13.4621 0.113317 13.4021 0.135337 13.3431 0.159885L13.3333 0.163635L0.793308 5.08289L0.789558 5.08439C0.751139 5.09661 0.713768 5.11191 0.677808 5.13014C0.588674 5.1703 0.503116 5.21797 0.422058 5.27263C0.260808 5.38364 -0.0459418 5.64464 0.00580822 6.05864C0.0485582 6.40213 0.284808 6.61964 0.444558 6.73289C0.53864 6.79931 0.640058 6.85467 0.746808 6.89788L0.770808 6.90839L0.778308 6.91063L0.783558 6.91289L2.97806 7.65163C2.97006 7.78963 2.98431 7.92839 3.02081 8.06789L4.11956 12.2371C4.17958 12.4644 4.30929 12.6672 4.49045 12.8169C4.67162 12.9667 4.89514 13.056 5.12964 13.0722C5.36414 13.0884 5.59782 13.0308 5.79788 12.9073C5.99794 12.7839 6.15432 12.601 6.24506 12.3841L7.96106 10.5496L10.9078 12.8086L10.9498 12.8266C11.2176 12.9436 11.4673 12.9804 11.6961 12.9496C11.9248 12.9181 12.1063 12.8221 12.2428 12.7134C12.4007 12.5854 12.5266 12.4223 12.6103 12.2371L12.6163 12.2244L12.6186 12.2199L12.6193 12.2176ZM4.10831 7.78138C4.09614 7.73512 4.09903 7.68619 4.11657 7.64168C4.1341 7.59718 4.16536 7.55942 4.20581 7.53389L11.6466 2.80888C11.6466 2.80888 12.0846 2.54263 12.0688 2.80888C12.0688 2.80888 12.1468 2.85539 11.9121 3.07364C11.6901 3.28139 6.60881 8.18713 6.09431 8.68363C6.06638 8.71194 6.04646 8.74713 6.03656 8.78563L5.20706 11.9506L4.10831 7.78138Z" fill="#183FF6"/>
</svg>
