<svg width="22" height="19" viewBox="0 0 22 19" fill="none" xmlns="http://www.w3.org/2000/svg">
<path fill-rule="evenodd" clip-rule="evenodd" d="M18.2279 17.6477V17.6455L18.2474 17.5989L21.4963 1.21894V1.16694C21.4963 0.758528 21.3446 0.402111 21.0175 0.188695C20.7304 0.00127795 20.4 -0.011722 20.1681 0.00561138C19.9524 0.0252984 19.7395 0.0688991 19.5333 0.135611C19.4453 0.163681 19.3586 0.195487 19.2733 0.230945L19.2592 0.236361L1.14589 7.34195L1.14047 7.34411C1.08498 7.36177 1.031 7.38386 0.979057 7.4102C0.850307 7.46821 0.726723 7.53707 0.60964 7.61603C0.376723 7.77636 -0.0663604 8.15336 0.00838966 8.75136C0.0701397 9.24753 0.41139 9.5617 0.64214 9.72528C0.778036 9.82122 0.924529 9.90119 1.07872 9.96361L1.11339 9.97878L1.12422 9.98203L1.13181 9.98528L4.30164 11.0524C4.29008 11.2517 4.31067 11.4521 4.36339 11.6536L5.95047 17.6759C6.03718 18.0041 6.22452 18.297 6.48621 18.5133C6.74789 18.7297 7.07076 18.8586 7.40948 18.882C7.7482 18.9055 8.08575 18.8222 8.37472 18.6439C8.66369 18.4657 8.88957 18.2014 9.02064 17.8882L11.4993 15.2384L15.7557 18.5014L15.8164 18.5274C16.2031 18.6964 16.5639 18.7494 16.8943 18.705C17.2247 18.6595 17.4869 18.5209 17.6841 18.3638C17.9122 18.1789 18.0939 17.9434 18.2149 17.6759L18.2236 17.6574L18.2268 17.6509L18.2279 17.6477ZM5.93422 11.2398C5.91665 11.173 5.92083 11.1023 5.94615 11.038C5.97148 10.9737 6.01663 10.9192 6.07506 10.8823L16.8228 4.05728C16.8228 4.05728 17.4555 3.67269 17.4327 4.05728C17.4327 4.05728 17.5454 4.12444 17.2063 4.43969C16.8856 4.73978 9.54606 11.8259 8.80289 12.543C8.76256 12.5839 8.73377 12.6347 8.71947 12.6904L7.52131 17.262L5.93422 11.2398Z" fill="white"/>
</svg>
