<svg width="161" height="128" viewBox="0 0 161 128" fill="none" xmlns="http://www.w3.org/2000/svg">
<path d="M114.683 11.0527C120.676 27.4236 133.576 40.3239 149.947 46.3174L158.64 49.5L149.947 52.6826C133.576 58.6761 120.676 71.5764 114.683 87.9473L111.5 96.6396L108.317 87.9473C102.324 71.5764 89.4236 58.6761 73.0527 52.6826L64.3594 49.5L73.0527 46.3174C89.4236 40.3239 102.324 27.4236 108.317 11.0527L111.5 2.35938L114.683 11.0527Z" fill="#D2F65A" stroke="#D2F65A" stroke-width="1.62308"/>
<path d="M25.5 15.5879C28.7571 23.1852 34.8139 29.2427 42.4111 32.5C34.8142 35.7572 28.7572 41.8142 25.5 49.4111C22.2427 41.8139 16.1852 35.7571 8.58789 32.5C16.1855 29.2427 22.2427 23.1855 25.5 15.5879Z" stroke="#D2F65A" stroke-width="6"/>
<path d="M73.2051 88.9209C76.2429 97.2185 82.7815 103.757 91.0791 106.795L91.6387 107L91.0791 107.205C82.7815 110.243 76.2429 116.782 73.2051 125.079L73 125.639L72.7949 125.079C69.7571 116.782 63.2185 110.243 54.9209 107.205L54.3604 107L54.9209 106.795C63.2185 103.757 69.7571 97.2185 72.7949 88.9209L73 88.3604L73.2051 88.9209Z" fill="#D2F65A" stroke="#D2F65A" stroke-width="1.62308"/>
</svg>
