<svg width="85" height="112" viewBox="0 0 85 112" fill="none" xmlns="http://www.w3.org/2000/svg">
<path d="M25.5 8.58789C28.7571 16.1852 34.8139 22.2427 42.4111 25.5C34.8142 28.7572 28.7572 34.8142 25.5 42.4111C22.2427 34.8139 16.1852 28.7571 8.58789 25.5C16.1855 22.2427 22.2427 16.1855 25.5 8.58789Z" stroke="#D2F65A" stroke-width="6"/>
<path d="M64.2051 72.9209C67.2429 81.2185 73.7815 87.7571 82.0791 90.7949L82.6387 91L82.0791 91.2051C73.7815 94.2429 67.2429 100.782 64.2051 109.079L64 109.639L63.7949 109.079C60.7571 100.782 54.2185 94.2429 45.9209 91.2051L45.3604 91L45.9209 90.7949C54.2185 87.7571 60.7571 81.2185 63.7949 72.9209L64 72.3604L64.2051 72.9209Z" fill="#D2F65A" stroke="#D2F65A" stroke-width="1.62308"/>
</svg>
