<svg width="125" height="129" viewBox="0 0 125 129" fill="none" xmlns="http://www.w3.org/2000/svg">
<path d="M52.6826 11.0527C58.6761 27.4236 71.5764 40.3239 87.9473 46.3174L96.6396 49.5L87.9473 52.6826C71.5764 58.6761 58.6761 71.5764 52.6826 87.9473L49.5 96.6396L46.3174 87.9473C40.3239 71.5764 27.4236 58.6761 11.0527 52.6826L2.35938 49.5L11.0527 46.3174C27.4236 40.3239 40.3239 27.4236 46.3174 11.0527L49.5 2.35938L52.6826 11.0527Z" fill="#D2F65A" stroke="#D2F65A" stroke-width="1.62308"/>
<path d="M104.205 89.9209C107.243 98.2185 113.782 104.757 122.079 107.795L122.639 108L122.079 108.205C113.782 111.243 107.243 117.782 104.205 126.079L104 126.639L103.795 126.079C100.757 117.782 94.2185 111.243 85.9209 108.205L85.3604 108L85.9209 107.795C94.2185 104.757 100.757 98.2185 103.795 89.9209L104 89.3604L104.205 89.9209Z" fill="#D2F65A" stroke="#D2F65A" stroke-width="1.62308"/>
</svg>
