<svg width="1920" height="679" viewBox="0 0 1920 679" fill="none" xmlns="http://www.w3.org/2000/svg">
<path d="M275.5 931.5L-215.431 424.415C-235.053 404.147 -209.689 372.514 -185.641 387.262L359.515 721.586C378.411 733.174 401.572 715.144 394.974 693.983L139.871 -124.147C131.568 -150.777 167.717 -167.757 182.911 -144.363L663.701 595.927C674.849 613.092 700.988 609.321 706.83 589.705L987.22 -351.76C994.278 -375.459 1028.23 -374.288 1033.64 -350.159L1242.13 579.841C1246.9 601.129 1275.3 605.524 1286.28 586.675L1736.79 -186.477C1750.91 -210.705 1788.02 -195.195 1780.7 -168.128L1548.12 691.703C1542.28 713.291 1566.54 730.429 1584.94 717.711L2073.53 379.928C2096.23 364.233 2123.14 392.98 2105.97 414.594L1695.5 931.5" stroke="white" stroke-width="162"/>
</svg>
