<svg width="225" height="225" viewBox="0 0 225 225" fill="none" xmlns="http://www.w3.org/2000/svg">
<path d="M120.283 0L120.314 92.8019L179.085 21.7318L191.01 31.893L132.287 103.004L222.297 86.9196L225 102.486H224.994L224.995 102.487L135.002 118.633L214.134 165.062L206.351 178.751L127.187 132.378L158.416 219.593L143.787 225L112.5 137.804L81.2126 225L66.5844 219.593L97.8124 132.378L18.6492 178.751L10.8657 165.062L89.9975 118.633L0.00475066 102.487L0.0057008 102.486H0L2.70313 86.9196L92.7121 103.004L33.9901 31.893L45.9152 21.7318L104.685 92.8029L104.716 0H120.283ZM112.462 114.496L39.955 26.8143L112.403 114.547L1.35394 94.7035L112.388 114.624L14.7594 171.905L112.427 114.692L73.8994 222.294L112.5 114.719L151.101 222.294L112.573 114.692L210.24 171.905L112.611 114.624L223.646 94.7035L112.597 114.547L185.045 26.8143L112.538 114.496L112.5 0.00289436L112.462 114.496Z" fill="#D2F65A"/>
</svg>
