<svg width="106" height="45" viewBox="0 0 106 45" fill="none" xmlns="http://www.w3.org/2000/svg">
<path d="M27.0692 30.2592H25.3594V18.4609H27.0692V30.2592Z" fill="#383838"/>
<path d="M36.4315 30.2592H34.7218V20.1464H28.6691V18.4609H42.4842V20.1464H36.4315V30.2592Z" fill="#383838"/>
<path d="M59.5157 26.0118C59.5157 26.7871 59.3219 27.5006 58.9344 28.1524C58.5468 28.7928 58.0282 29.3041 57.3785 29.6861C56.7288 30.0682 56.0049 30.2592 55.207 30.2592C54.5003 30.2592 53.8449 30.1075 53.2408 29.8041C52.6367 29.5007 52.1351 29.0906 51.7362 28.5737C51.3486 29.0906 50.8528 29.5007 50.2487 29.8041C49.6446 30.1075 48.9891 30.2592 48.2824 30.2592C47.4959 30.2592 46.7721 30.0682 46.111 29.6861C45.4613 29.3041 44.9427 28.7928 44.5551 28.1524C44.1676 27.5006 43.9738 26.7871 43.9738 26.0118V18.4609H45.6836V26.0118C45.6836 26.4837 45.7976 26.9164 46.0255 27.3096C46.2649 27.6917 46.5784 28.0007 46.9659 28.2366C47.3649 28.4614 47.8037 28.5737 48.2824 28.5737C48.7498 28.5737 49.1772 28.467 49.5648 28.2535C49.9523 28.0288 50.2601 27.731 50.4881 27.3602C50.7274 26.9894 50.8585 26.5793 50.8813 26.1298V18.4609H52.6082V26.0118C52.6082 26.4837 52.7222 26.9164 52.9501 27.3096C53.1895 27.6917 53.503 28.0007 53.8905 28.2366C54.2895 28.4614 54.7283 28.5737 55.207 28.5737C55.6858 28.5737 56.1189 28.4614 56.5065 28.2366C56.9054 28.0007 57.2189 27.6917 57.4469 27.3096C57.6862 26.9164 57.8059 26.4837 57.8059 26.0118V18.4609H59.5157V26.0118Z" fill="#383838"/>
<path d="M74.6554 30.2592H62.2766V18.4609H74.6554V20.1464H63.9864V28.5737H74.6554V30.2592ZM73.2021 25.2028H64.8413V23.5173H73.2021V25.2028Z" fill="#383838"/>
<path d="M90.8582 26.8883C90.8582 27.5063 90.7043 28.0737 90.3966 28.5906C90.0888 29.0962 89.6728 29.5007 89.1484 29.8041C88.6355 30.1075 88.0656 30.2592 87.4387 30.2592H79.3343V28.5737H87.4387C87.906 28.5737 88.305 28.4108 88.6355 28.0849C88.9775 27.7478 89.1484 27.349 89.1484 26.8883C89.1484 26.4276 88.9775 26.0343 88.6355 25.7084C88.305 25.3713 87.906 25.2028 87.4387 25.2028H79.3343V23.5173H85.7289C86.1962 23.5173 86.5952 23.3544 86.9257 23.0285C87.2677 22.6915 87.4387 22.2926 87.4387 21.8319C87.4387 21.3712 87.2677 20.9779 86.9257 20.652C86.5952 20.3149 86.1962 20.1464 85.7289 20.1464H78.4794V30.2592H76.7696V18.4609H85.7289C86.3558 18.4609 86.9257 18.6126 87.4387 18.916C87.963 19.2194 88.379 19.6295 88.6868 20.1464C88.9946 20.652 89.1484 21.2139 89.1484 21.8319C89.1484 22.1802 89.0971 22.5173 88.9946 22.8431C88.892 23.1578 88.7495 23.4499 88.5671 23.7196C89.2396 23.9443 89.7868 24.3488 90.2085 24.9331C90.6416 25.5062 90.8582 26.1579 90.8582 26.8883Z" fill="#383838"/>
<path d="M105.999 26.8883C105.999 27.5063 105.845 28.0737 105.537 28.5906C105.229 29.0962 104.819 29.5007 104.306 29.8041C103.793 30.1075 103.217 30.2592 102.579 30.2592H92.1837V28.5737H102.579C103.058 28.5737 103.463 28.4108 103.793 28.0849C104.124 27.7478 104.289 27.349 104.289 26.8883C104.289 26.4276 104.124 26.0343 103.793 25.7084C103.463 25.3713 103.058 25.2028 102.579 25.2028H95.6033C94.9763 25.2028 94.4007 25.0511 93.8764 24.7477C93.3634 24.4443 92.9531 24.0398 92.6453 23.5342C92.3376 23.0173 92.1837 22.4499 92.1837 21.8319C92.1837 21.2139 92.3376 20.652 92.6453 20.1464C92.9531 19.6295 93.3634 19.2194 93.8764 18.916C94.4007 18.6126 94.9763 18.4609 95.6033 18.4609H105.144V20.1464H95.6033C95.1359 20.1464 94.7313 20.3149 94.3893 20.652C94.0588 20.9779 93.8935 21.3712 93.8935 21.8319C93.8935 22.2926 94.0588 22.6915 94.3893 23.0285C94.7313 23.3544 95.1359 23.5173 95.6033 23.5173H102.579C103.217 23.5173 103.793 23.669 104.306 23.9724C104.819 24.2758 105.229 24.6859 105.537 25.2028C105.845 25.7084 105.999 26.2703 105.999 26.8883Z" fill="#383838"/>
<path fill-rule="evenodd" clip-rule="evenodd" d="M10.2866 23.4047C10.3328 23.3692 10.3748 23.3287 10.4127 23.2833C10.4405 23.2499 10.4661 23.2137 10.4894 23.1749C11.405 21.5575 11.7817 19.8344 11.6196 18.0058C11.6292 18.4848 11.6196 18.9634 11.5906 19.4417C11.5816 19.397 11.5726 19.3523 11.5635 19.3076C11.5532 19.2566 11.5429 19.2055 11.5326 19.1545C11.5133 19.3268 11.494 19.4991 11.4747 19.6714C11.465 19.6044 11.4554 19.5374 11.4457 19.4704C11.4361 19.4034 11.4264 19.3364 11.4168 19.2694C11.4003 19.4556 11.352 19.4748 11.2718 19.3268C11.1946 19.48 11.1173 19.48 11.04 19.3268C10.9797 19.4699 10.9314 19.4699 10.8951 19.3268C10.8621 19.5486 10.8139 19.5486 10.7502 19.3268C10.6851 19.6267 10.6367 19.6267 10.6054 19.3268C10.589 19.3901 10.5712 19.4481 10.5537 19.5053C10.5171 19.6246 10.4816 19.74 10.4626 19.8917C10.4622 19.8949 10.4619 19.898 10.4615 19.9011C10.3756 20.6191 10.3474 20.6404 10.2586 20.9924C10.1712 21.3206 10.0456 21.5695 9.88191 21.8539C9.79392 22.0067 9.73188 22.1325 9.6501 22.256C9.44594 22.5847 9.27105 22.9101 9.06952 23.2324C9.2125 23.2016 9.34765 23.1729 9.47521 23.1462C9.32658 23.0612 9.32658 22.9751 9.47521 22.8878C9.58736 23.0301 9.70331 23.0301 9.82297 22.8878C9.80291 22.8191 9.77386 22.8191 9.73599 22.8878C9.70021 22.8333 9.70989 22.7854 9.76496 22.7442C9.68774 22.7059 9.62973 22.6485 9.59108 22.5719C9.65118 22.479 9.71879 22.4694 9.79392 22.5432C9.85193 22.39 9.90987 22.39 9.9678 22.5432C9.94689 22.2388 10.0339 22.191 10.2287 22.3996C10.0541 22.6503 10.1313 22.7652 10.4605 22.7442C10.5114 22.8221 10.5308 22.9082 10.5184 23.0026C10.1804 23.0095 10.1031 23.1436 10.2866 23.4047Z" fill="#183FF6"/>
<path d="M4.37478 27.54C4.37541 27.4528 4.41458 27.386 4.49126 27.3391C4.39831 27.261 4.31111 27.1746 4.23031 27.0805C4.21102 27.1379 4.19136 27.1955 4.17207 27.2529C4.05714 27.123 3.93148 26.9984 3.79541 26.8796C3.85098 26.7956 3.92862 26.7474 4.02761 26.7357C4.1586 26.7912 4.29374 26.8294 4.43301 26.8504V26.621C4.5125 26.63 4.5896 26.6199 4.66446 26.5918C4.67398 26.5754 4.68297 26.5604 4.69144 26.5467C4.6959 26.5396 4.70021 26.5328 4.70438 26.5264C4.7337 26.4814 4.75565 26.4558 4.77029 26.4495C4.79575 26.4387 4.79903 26.4865 4.78019 26.5926C4.81897 26.6118 4.85787 26.631 4.89677 26.6501C4.93535 26.6691 4.97392 26.6882 5.01239 26.7072C5.01084 26.708 5.0093 26.7088 5.00776 26.7095C4.97083 26.7278 4.93398 26.7465 4.89705 26.7648L4.89667 26.7649C4.93658 26.8261 4.96502 26.8933 4.98289 26.9658L4.98364 26.965C4.99864 26.9445 5.01431 26.9272 5.03067 26.9134C5.10072 26.8543 5.18343 26.8563 5.27836 26.9197C5.28618 26.9249 5.29408 26.9305 5.30207 26.9366C5.38466 27.0148 5.43326 27.1011 5.44729 27.1952C5.48563 27.11 5.53363 27.0337 5.59176 26.9658L5.59139 26.9655C5.28821 26.6806 4.95962 26.4218 4.60623 26.1901C5.20596 26.1006 5.80528 26.0049 6.40333 25.9029C6.95429 25.8556 7.49515 25.8649 8.02571 25.9314C8.3871 25.9807 8.7354 26.0763 9.06952 26.2185C9.08011 26.2074 9.09017 26.1959 9.0997 26.1841C9.15783 26.1119 9.19573 26.0278 9.21397 25.9314C9.23879 25.8937 9.26558 25.8777 9.29411 25.8836C9.30566 25.886 9.31751 25.892 9.32966 25.9016C9.33931 25.9092 9.34915 25.9192 9.35919 25.9314C9.40465 25.8889 9.44322 25.8413 9.4749 25.7883C9.36631 25.6304 9.28941 25.4578 9.24348 25.2711C9.31845 25.0895 9.29893 24.9169 9.18524 24.7539C9.19891 24.736 9.21002 24.7178 9.21856 24.6993C9.24791 24.6354 9.24628 24.5678 9.21397 24.496C9.06062 24.4125 8.95451 24.2879 8.89557 24.1228C8.95606 24.0106 8.95606 23.8955 8.89557 23.778C8.90742 23.671 8.94599 23.5751 9.01128 23.4909C9.00666 23.4739 9.02382 23.4495 9.04079 23.4254C9.07499 23.3768 9.10839 23.3293 8.96085 23.3461C8.9583 23.3464 8.9557 23.3467 8.95304 23.347C8.7512 23.6054 8.56044 23.7494 8.31538 23.9504C7.91101 24.282 7.44723 24.4929 6.92446 24.5822C6.01768 24.7289 5.1098 24.844 4.20082 24.9271C4.56102 24.5127 4.89917 24.0812 5.21509 23.6341C6.31548 21.7311 6.90475 19.6824 6.9827 17.4885C7.07746 15.8536 6.87496 14.2652 6.37459 12.7221C7.249 13.2653 8.10843 13.8298 8.95304 14.4161C9.79439 15.1053 9.9994 15.6455 10.2002 16.3979C10.3404 16.8112 10.4319 17.1721 10.461 17.6019C10.4611 17.6026 10.4611 17.6032 10.4612 17.6039C10.5048 17.8413 10.5581 17.4671 10.5741 17.1648C10.5794 17.0655 10.5806 16.9739 10.5762 16.9143H10.8076C10.7989 16.7049 10.8065 16.4955 10.8297 16.2869C10.832 16.2662 10.8345 16.2455 10.8371 16.2248C10.8467 16.2342 10.8566 16.2441 10.8664 16.2538C10.8761 16.2635 10.8858 16.2732 10.8954 16.2825C11.0056 16.1183 10.9572 16.0229 10.7501 15.9954C10.7372 15.8897 10.7175 15.7836 10.6919 15.6791C10.7439 15.5591 10.7824 15.4351 10.8076 15.3066C10.7479 15.0488 10.8135 14.8587 11.004 14.7374C11.0312 14.7201 11.0609 14.7042 11.0931 14.6897C11.13 14.6731 11.1702 14.6583 11.2138 14.6454C11.2013 14.6393 11.1887 14.6331 11.1762 14.627C11.1608 14.6194 11.1454 14.6118 11.13 14.6042C11.1194 14.599 11.1087 14.5937 11.098 14.5885C11.123 14.5631 11.1482 14.538 11.1735 14.513C11.3508 14.3382 11.5379 14.172 11.7349 14.0144C11.6836 13.9976 11.6323 13.9799 11.581 13.9629C11.5771 13.9616 11.5732 13.9604 11.5694 13.9591C11.5668 13.9583 11.5642 13.9575 11.5617 13.9566C11.8073 13.913 12.0388 13.8356 12.2568 13.7265C12.2039 13.7104 12.1652 13.6816 12.1411 13.6403C11.1879 13.8803 10.2794 13.7756 9.41666 13.3247C8.72425 12.8492 8.04787 12.3514 7.38811 11.8316C11.1733 11.0471 14.0815 9.02772 16.1112 5.77228C16.394 5.2502 16.6451 4.71338 16.8645 4.16374C17.1081 4.98386 17.3396 5.80713 17.5596 6.63353C17.6563 7.19629 17.6665 7.75115 17.5891 8.29902C17.4339 9.29605 17.0275 10.1767 16.3714 10.9412C16.3695 10.9431 16.3679 10.945 16.3665 10.9468C16.3541 10.9625 16.3597 10.9723 16.3652 10.982C16.3683 10.9873 16.3714 10.9926 16.3714 10.9989C16.4495 11.0293 16.5271 11.0383 16.6036 11.0274C16.6747 10.9046 16.7714 10.8086 16.8932 10.7403C16.881 10.7343 16.8687 10.7282 16.8565 10.7221C16.8536 10.7206 16.8507 10.7192 16.8479 10.7177C16.8273 10.7074 16.8068 10.697 16.7862 10.6869C16.7833 10.6855 16.7804 10.684 16.7775 10.6826C16.8945 10.5305 17.0201 10.425 17.1542 10.367C17.3042 10.3848 17.4689 10.4136 17.6474 10.4532C17.7742 10.5697 17.8317 10.7131 17.8206 10.8835C18.0655 10.4946 18.2977 10.0927 18.5164 9.67744C18.837 10.5447 19.1171 11.4254 19.3567 12.3196C19.5029 12.8653 19.4505 13.0954 19.3567 13.4686C19.2887 13.7391 19.182 13.9878 19.0376 14.2152C18.7989 14.7768 18.4317 15.2364 17.9363 15.5936C17.3398 16.1376 16.6451 16.5018 15.852 16.6846C15.8514 16.6847 15.8508 16.6849 15.8502 16.685C15.9385 16.7036 16.0127 16.7446 16.0723 16.8086C16.086 16.8234 16.099 16.8394 16.1112 16.8566C16.2484 16.7866 16.3936 16.7393 16.5461 16.7135C16.4131 16.6572 16.4322 16.6086 16.6036 16.5696C16.6133 16.6212 16.6329 16.6788 16.6618 16.742C16.7215 16.6537 16.7987 16.6249 16.8932 16.6558C16.8425 16.7465 16.7656 16.804 16.6618 16.8281C16.6922 16.8678 16.7308 16.8965 16.7775 16.9143C16.845 16.8575 16.9126 16.7999 16.9802 16.742C17.1649 16.773 17.3487 16.8113 17.5309 16.8566C17.4409 16.9106 17.3639 16.9784 17.2994 17.0583C17.3093 17.0716 17.3177 17.0849 17.3244 17.0984C17.3601 17.1694 17.3514 17.242 17.2992 17.3162L17.2987 17.3168C18.428 16.7747 19.356 15.9898 20.0813 14.9618C20.3898 15.8118 20.6699 16.6733 20.9216 17.5462C21.0592 18.5652 20.6244 19.2066 19.6177 19.4703C19.4061 19.499 19.1934 19.5082 18.9801 19.4988C19.1641 19.5329 19.3477 19.5904 19.5307 19.6712C19.621 19.6408 19.7081 19.6027 19.7916 19.5565C19.8607 19.5764 19.8608 19.6052 19.7916 19.6427C19.9935 19.5928 20.1762 19.641 20.3415 19.7866C20.3889 19.7397 20.4365 19.6923 20.4844 19.6446L20.4849 19.6441L20.4854 19.6436C20.5337 19.5956 20.5823 19.5473 20.6312 19.4988C20.8191 19.5672 21.0028 19.5485 21.1818 19.4419C21.2385 19.4693 21.2871 19.5073 21.327 19.5565C21.3487 19.5039 21.3777 19.4557 21.414 19.4126C21.1692 19.1823 21.2272 19.0578 21.5879 19.0394C21.678 18.8538 21.8137 18.7007 21.9942 18.5798C22.0566 18.6933 22.037 18.799 21.9359 18.8961C21.9438 18.8987 21.9516 18.9013 21.9595 18.9039C21.971 18.9077 21.9825 18.9115 21.994 18.9153C21.9953 18.9157 21.9966 18.9162 21.9979 18.9166C22.006 18.9193 22.0141 18.9219 22.0221 18.9246H22.0229C22.1575 18.9105 22.2112 18.8576 22.184 18.7656C22.1801 18.7524 22.1745 18.7385 22.1674 18.7237C22.4376 18.6535 22.4185 18.5578 22.1099 18.4367C22.303 18.3671 22.4475 18.4147 22.544 18.5798C22.7318 18.4916 22.9059 18.5111 23.0659 18.6375C23.0699 18.6296 23.0739 18.6216 23.0779 18.6136C23.0808 18.6079 23.0836 18.6022 23.0865 18.5965C23.0897 18.5901 23.093 18.5836 23.0962 18.5771C23.0978 18.574 23.0993 18.5709 23.1009 18.5677C23.1084 18.5528 23.1159 18.5378 23.1234 18.5229L23.1235 18.5234C23.1261 18.5456 23.1291 18.5785 23.1327 18.6179C23.1515 18.8233 23.1862 19.2044 23.2693 19.1547C23.2405 19.2405 23.2116 19.3049 23.19 19.3532C23.1619 19.4159 23.146 19.4516 23.1576 19.4719C23.173 19.4988 23.2368 19.4988 23.3851 19.4988H23.3858V19.3889V17.891C22.9222 17.891 22.4579 17.9772 22.1961 17.4315C21.7859 16.3977 21.458 15.3445 21.2113 14.2722C21.3806 14.3991 21.5642 14.5052 21.762 14.5885C22.6414 14.9221 23.5492 15.0372 24.4856 14.9332C25.1409 14.8598 25.7497 14.6584 26.3115 14.3299C26.1232 14.9748 25.8536 15.6639 25.5589 16.2825H26.9211C27.1365 15.8552 27.3187 15.3577 27.4702 14.9041C27.7159 15.3675 27.9976 15.865 28.312 16.2825H30.0494C29.9345 16.1677 29.8472 16.0819 29.7014 15.9384C28.6523 15.0258 28.1989 13.8767 28.34 12.492C28.6028 11.5575 28.912 10.6386 29.2673 9.73516C30.0373 11.4461 31.2062 12.815 32.7737 13.842C33.3267 14.1393 33.9061 14.3689 34.5119 14.5308C34.0556 14.9161 33.5858 15.3065 33.1512 15.6798C32.9484 15.8541 32.6607 16.0907 32.4266 16.2825H34.2222C34.3318 16.2136 34.4386 16.1375 34.5414 16.0531V16.2825H35.3825C35.4295 16.1423 35.4869 15.9505 35.5556 15.823C35.7747 15.2316 36.1419 14.7431 36.6569 14.3584C37.3619 13.8129 38.0667 13.2675 38.7717 12.7221C38.6145 13.344 38.4795 13.9756 38.3662 14.6169C38.2989 15.1131 38.2502 15.6111 38.221 16.1101V16.2825H39.3806C39.429 15.0379 39.6705 13.832 40.1051 12.6644C40.654 11.5852 41.4951 10.6856 42.5111 10.0222C42.5602 9.99014 42.5981 9.9645 42.5981 9.9645C42.4545 9.7578 42.2216 9.48985 42.0755 9.27571C42.0139 9.19527 41.9897 9.13173 41.9317 9.04553C41.9027 9.10302 39.017 10.1435 37.4677 9.64897C35.8619 8.92817 34.5674 7.84687 33.5846 6.40412C32.865 5.48231 32.3723 4.44835 32.1067 3.30249C32.019 2.78847 32.0576 2.27145 32.1067 1.75167C32.19 1.29107 32.2491 0.831547 32.3396 0.373249C32.0088 0.289433 31.5643 0.136463 31.2383 0.0284691C31.2095 0.143063 31.2263 0.0863419 31.2088 0.143139C30.9302 1.0483 30.4274 1.79542 29.7014 2.38359C29.341 2.73497 28.9353 3.03224 28.4844 3.27401C26.8264 4.06765 25.0877 4.38342 23.2686 4.22146C21.0696 4.15653 19.126 3.50351 17.6761 1.80939C17.2829 1.27925 16.9357 0.618557 16.6913 0C16.6625 0.00767517 16.6528 0.0169563 16.6036 0.0284691C16.3087 0.097393 15.9041 0.212215 15.6196 0.315525C15.6485 0.373016 15.6483 0.373554 15.6763 0.430969C16.0598 1.60254 16.0599 2.77082 15.6763 3.93441C15.0415 5.51201 14.0757 6.8618 12.7787 7.98348C11.3874 9.24762 9.76426 10.0891 7.91 10.5102C6.27354 10.7985 4.79554 10.4446 3.47622 9.4481C3.24317 9.70761 3.02103 9.97609 2.80987 10.2523C3.9147 10.9357 4.71656 11.8734 5.21509 13.0661C6.1092 15.6811 6.09968 18.2851 5.18635 20.8772C5.08754 21.2866 4.93295 21.6699 4.7227 22.0263C3.87288 24.1137 2.24118 25.3868 0 25.7883C0.0289583 25.8744 0.029268 25.903 0.0582396 25.9891C0.150849 26.2166 0.236419 26.4468 0.31767 26.6788C0.346812 26.7624 0.375156 26.8189 0.376666 26.8219C0.376666 26.8219 0.646296 26.7357 0.665595 26.7357C0.940496 26.6497 1.23021 26.6115 1.53465 26.621C2.57457 26.6519 3.52142 26.9581 4.37478 27.54ZM24.0098 9.69318C19.3628 9.69318 18.201 4.3204 18.201 4.3204C23.334 6.41448 25.8313 6.23872 29.8187 4.3204C29.8187 4.3204 28.6569 9.69318 24.0098 9.69318ZM39.1144 11.2283C39.1144 11.2283 35.6274 15.0657 32.1437 11.9958C28.6602 8.92587 31.3692 4.70417 31.3692 4.70417C33.3475 9.03133 34.3259 10.4364 39.1144 11.2283ZM24.0098 13.9146C20.9118 13.9146 19.75 9.30941 19.75 9.30941C22.946 11.0467 24.8226 10.9647 28.2696 9.30941C28.2696 9.30941 27.1079 13.9146 24.0098 13.9146Z" fill="#183FF6"/>
<path fill-rule="evenodd" clip-rule="evenodd" d="M11.6196 18.0058C11.6292 18.4848 11.6196 18.9634 11.5906 19.4417L11.5761 19.3691L11.5635 19.3076L11.5326 19.1545L11.5034 19.4126L11.4747 19.6714C11.465 19.6044 11.4554 19.5374 11.4457 19.4704C11.4361 19.4034 11.4264 19.3364 11.4168 19.2694C11.4003 19.4556 11.352 19.4748 11.2718 19.3268C11.1946 19.48 11.1173 19.48 11.04 19.3268C10.9797 19.4699 10.9314 19.4699 10.8951 19.3268C10.8621 19.5486 10.8139 19.5486 10.7502 19.3268C10.6851 19.6267 10.6367 19.6267 10.6054 19.3268C10.589 19.3901 10.5712 19.4481 10.5537 19.5053C10.5171 19.6246 10.4816 19.74 10.4626 19.8917L10.4605 19.9005V17.6032L10.461 17.6019L10.4612 17.6039C10.5048 17.8413 10.5581 17.4671 10.5741 17.1648C10.5818 17.0827 10.5825 16.9992 10.5762 16.9143H10.8076H10.8084C10.7996 16.7048 10.8066 16.4954 10.8297 16.2869C10.832 16.2662 10.8345 16.2455 10.8371 16.2248L10.8664 16.2538L10.8666 16.254L10.8757 16.2637L10.8954 16.2825C11.0056 16.1183 10.9572 16.0229 10.7501 15.9954C10.7372 15.8897 10.7175 15.7836 10.6919 15.6791C10.7439 15.5591 10.7831 15.4344 10.8084 15.3058C10.7487 15.0482 10.8139 14.8586 11.004 14.7374C11.0312 14.7201 11.0609 14.7042 11.0931 14.6897C11.13 14.6731 11.1702 14.6583 11.2138 14.6454L11.185 14.6312L11.1762 14.627L11.13 14.6042L11.098 14.5885C11.123 14.5631 11.1482 14.538 11.1735 14.513C11.3508 14.3382 11.5379 14.172 11.7349 14.0144L11.7356 14.0136C11.7078 14.0045 11.6742 13.9936 11.6464 13.9843C11.6389 13.9818 11.6314 13.9794 11.6239 13.9769C11.6175 13.9748 11.6111 13.9727 11.6047 13.9706C11.5968 13.9681 11.5889 13.9655 11.581 13.9629L11.5694 13.9591L11.5617 13.9566C11.8073 13.913 12.0388 13.8356 12.2568 13.7265C12.2039 13.7104 12.1652 13.6816 12.1411 13.6403C13.7985 13.1539 15.181 12.2447 16.3441 10.9697C16.3519 10.9612 16.3593 10.9535 16.3665 10.9468C16.3541 10.9625 16.3597 10.9723 16.3652 10.982C16.3683 10.9873 16.3714 10.9926 16.3714 10.9989C16.4495 11.0293 16.5271 11.0383 16.6036 11.0274C16.6747 10.9046 16.7714 10.8086 16.8932 10.7403L16.8713 10.729L16.8565 10.7221L16.8479 10.7177L16.835 10.7111C16.8188 10.703 16.8025 10.6949 16.7862 10.6869L16.7775 10.6826C16.8945 10.5305 17.0201 10.425 17.1542 10.367C17.3042 10.3848 17.4689 10.4136 17.6474 10.4532C17.7742 10.5697 17.8317 10.7131 17.8206 10.8835C16.4128 12.9798 14.4617 14.311 11.9671 14.8756C12.7178 15.5619 13.5485 16.1364 14.4593 16.5988C14.9135 16.7578 15.3772 16.7859 15.8502 16.6842L15.852 16.6846L15.8502 16.685C15.9385 16.7036 16.0127 16.7446 16.0723 16.8086C16.086 16.8234 16.099 16.8394 16.1112 16.8566C16.2484 16.7866 16.3936 16.7393 16.5461 16.7135C16.4131 16.6572 16.4322 16.6086 16.6036 16.5696C16.6133 16.6212 16.6329 16.6788 16.6618 16.742C16.7215 16.6537 16.7987 16.6249 16.8932 16.6558C16.8425 16.7465 16.7656 16.804 16.6618 16.8281C16.6922 16.8678 16.7308 16.8965 16.7775 16.9143C16.845 16.8575 16.9126 16.7999 16.9802 16.742C17.1649 16.773 17.3487 16.8113 17.5309 16.8566C17.4409 16.9106 17.3639 16.9784 17.2994 17.0583C17.3093 17.0716 17.3177 17.0849 17.3244 17.0984C17.3601 17.1694 17.3514 17.242 17.2992 17.3162C16.9498 17.4891 16.5827 17.6329 16.1982 17.7471C16.7809 18.1905 17.3796 18.612 17.9945 19.0108C18.2926 19.2351 18.6213 19.3976 18.9801 19.4988C19.1641 19.5329 19.3477 19.5904 19.5307 19.6712C19.621 19.6408 19.7081 19.6027 19.7916 19.5565C19.8607 19.5764 19.8608 19.6052 19.7916 19.6427C19.9935 19.5928 20.1762 19.641 20.3415 19.7866C20.3889 19.7397 20.4365 19.6923 20.4844 19.6446L20.4849 19.6441L20.4854 19.6436C20.5337 19.5956 20.5823 19.5473 20.6312 19.4988C20.8191 19.5672 21.0028 19.5485 21.1818 19.4419C21.2385 19.4693 21.2871 19.5073 21.327 19.5565C21.3487 19.5039 21.3777 19.4557 21.414 19.4126C21.1692 19.1823 21.2272 19.0578 21.5879 19.0394C21.678 18.8538 21.8137 18.7007 21.9942 18.5798C22.0566 18.6933 22.037 18.799 21.9359 18.8961L21.9595 18.9039L21.994 18.9153L21.9949 18.9156L21.9979 18.9166L22.0221 18.9246H22.0229C22.1578 18.9106 22.2113 18.8576 22.184 18.7656C22.1801 18.7524 22.1745 18.7385 22.1674 18.7237C22.4376 18.6535 22.4185 18.5578 22.1099 18.4367C22.303 18.3671 22.4475 18.4147 22.544 18.5798C22.7318 18.4916 22.9059 18.5111 23.0659 18.6375C23.0699 18.6296 23.0739 18.6216 23.0779 18.6136C23.0808 18.6079 23.0836 18.6022 23.0865 18.5965C23.0897 18.5901 23.093 18.5836 23.0962 18.5771L23.1009 18.5677L23.1113 18.5476L23.1235 18.5234C23.1261 18.5456 23.1291 18.5785 23.1327 18.6179C23.1515 18.8233 23.1862 19.2044 23.2693 19.1547C23.2405 19.2405 23.2116 19.3049 23.19 19.3532C23.1619 19.4159 23.146 19.4516 23.1576 19.4719C23.173 19.4988 23.2368 19.4988 23.3851 19.4988H23.3858V19.3889C23.3863 19.4063 23.3866 19.4237 23.3866 19.4411C23.3857 20.2128 23.3857 20.7362 23.3866 21.5953C23.3866 24.7542 23.3946 27.7886 23.4139 30.871C23.4142 30.9342 23.4257 31.1799 23.4382 31.4476L23.441 31.5089H22.4713C22.5431 31.0901 22.9334 28.5664 22.0736 27.7304C21.1348 26.8175 18.5883 29.6492 18.5883 29.6492C20.3385 29.5763 21.5769 30.2218 22.4225 31.5089H21.38C21.1568 31.2193 20.8762 30.9747 20.5245 30.8005C19.4611 30.2737 18.2354 30.7919 17.2187 31.5089H14.9687C15.7816 30.3439 16.9561 28.1824 15.8775 26.579C14.3285 24.2764 10.0686 25.4277 10.0686 25.4277C12.7798 27.035 13.4355 28.309 14.1504 31.5089H12.7435C12.7083 31.243 12.6429 30.9919 12.5472 30.7563C12.1659 29.3158 11.4316 28.0804 10.3447 27.0512C9.94379 26.7288 9.51858 26.4513 9.06952 26.2185C9.08011 26.2074 9.09017 26.1959 9.0997 26.1841C9.15796 26.1119 9.19651 26.0277 9.21474 25.9314C9.23944 25.8938 9.26588 25.8779 9.29411 25.8836C9.30566 25.886 9.31751 25.892 9.32966 25.9016C9.33931 25.9092 9.34915 25.9192 9.35919 25.9314C9.40465 25.8889 9.44322 25.8413 9.4749 25.7883C9.36631 25.6304 9.28941 25.4578 9.24348 25.2711C9.31845 25.0895 9.29893 24.9169 9.18524 24.7539C9.19891 24.736 9.21002 24.7178 9.21856 24.6993C9.24804 24.6354 9.24687 24.5677 9.21474 24.496C9.06131 24.4125 8.95459 24.2879 8.89557 24.1228C8.95606 24.0106 8.95606 23.8955 8.89557 23.778C8.90742 23.671 8.94599 23.5751 9.01128 23.4909C9.00666 23.4739 9.02382 23.4495 9.04079 23.4254C9.07499 23.3768 9.10839 23.3293 8.96085 23.3461L8.98557 23.3162C8.98764 23.3142 8.98968 23.3123 8.99164 23.3106C8.99346 23.3089 8.99522 23.3074 8.99688 23.306C8.99821 23.3049 8.99948 23.3038 9.00067 23.3027C9.00322 23.3005 9.00552 23.2981 9.00792 23.2957C9.00864 23.2949 9.00938 23.2942 9.01013 23.2934L9.01128 23.2923C9.0174 23.2862 9.02406 23.2793 9.03165 23.2713L9.04605 23.2563C9.05178 23.2503 9.05829 23.2437 9.06558 23.2364L9.06952 23.2324C9.2125 23.2016 9.34765 23.1729 9.47521 23.1462C9.32658 23.0612 9.32658 22.9751 9.47521 22.8878C9.58736 23.0301 9.70331 23.0301 9.82297 22.8878C9.80291 22.8191 9.77386 22.8191 9.73599 22.8878C9.70021 22.8333 9.70989 22.7854 9.76496 22.7442C9.68774 22.7059 9.62973 22.6485 9.59108 22.5719C9.65118 22.479 9.71879 22.4694 9.79392 22.5432C9.85193 22.39 9.90987 22.39 9.9678 22.5432C9.94689 22.2388 10.0339 22.191 10.2287 22.3996C10.0541 22.6503 10.1313 22.7652 10.4605 22.7442C10.5114 22.8221 10.5308 22.9082 10.5184 23.0026C10.1804 23.0095 10.1031 23.1436 10.2866 23.4047C10.3328 23.3692 10.3748 23.3287 10.4127 23.2833C10.3955 23.319 10.3735 23.3593 10.3455 23.4047C10.2042 23.6337 10.0316 23.8549 9.8682 24.0643L9.82281 24.1228C10.8201 24.059 11.8054 23.9051 12.7787 23.6625C13.5417 23.2892 14.1114 22.7247 14.4881 21.9686C15.0006 20.5915 14.8852 19.2705 14.1409 18.0057C13.2876 17.2155 12.3311 16.5936 11.272 16.1393C11.4844 16.7423 11.6002 17.3644 11.6196 18.0058ZM18.9763 21.9738C19.3627 20.8225 16.2647 19.2874 16.2647 19.2874C16.2666 19.4067 16.2686 19.5213 16.2705 19.6317C16.3035 21.5202 16.3149 22.1716 15.103 23.5089C15.103 23.5089 18.589 23.1252 18.9763 21.9738ZM20.9118 19.6712L20.1373 20.4387L22.0736 21.2063L20.9118 19.6712ZM21.2991 22.3576L19.75 21.2063L19.3628 22.7414L21.2991 22.3576ZM21.2991 23.5089H19.3628L20.1373 25.044L21.2991 23.5089ZM14.7157 24.6602C16.7792 25.267 17.0866 26.2963 17.4265 28.4979C17.4265 28.4979 19.75 25.8115 18.9755 24.6602C18.201 23.5089 14.7157 24.6602 14.7157 24.6602ZM22.4608 25.044L21.2991 26.579L22.4608 26.9628V25.044Z" fill="#183FF6"/>
<path d="M5.30207 26.9366C5.38466 27.0148 5.43326 27.1011 5.44729 27.1952C5.48563 27.11 5.53363 27.0337 5.59176 26.9658L5.59139 26.9655L5.59176 26.965C7.18251 28.2769 8.37951 29.7916 9.18272 31.5089H7.831C7.02901 29.9744 5.87689 28.6515 4.37478 27.54C4.37541 27.4528 4.41458 27.386 4.49126 27.3391C4.39831 27.261 4.31111 27.1746 4.23031 27.0805L4.20082 27.1667L4.17207 27.2529C4.05714 27.123 3.93148 26.9984 3.79541 26.8796C3.85098 26.7956 3.92862 26.7474 4.02761 26.7357C4.1586 26.7912 4.29374 26.8294 4.43301 26.8504V26.621C4.5125 26.63 4.5896 26.6199 4.66446 26.5918C4.67398 26.5754 4.68297 26.5604 4.69144 26.5467C4.6959 26.5396 4.70021 26.5328 4.70438 26.5264C4.73356 26.4816 4.75554 26.456 4.77029 26.4495C4.79575 26.4387 4.79903 26.4865 4.78019 26.5926C4.81897 26.6118 4.85787 26.631 4.89677 26.6501C4.93535 26.6691 4.97392 26.6882 5.01239 26.7072L5.00776 26.7095L4.9549 26.7357L4.89667 26.7642L4.89705 26.7648L4.89667 26.7649C4.93658 26.8261 4.96502 26.8933 4.98289 26.9658L4.98364 26.965C4.99864 26.9445 5.01431 26.9272 5.03067 26.9134C5.10072 26.8543 5.18343 26.8563 5.27836 26.9197C5.28618 26.9249 5.29408 26.9305 5.30207 26.9366Z" fill="#183FF6"/>
<path fill-rule="evenodd" clip-rule="evenodd" d="M23.3851 45H22.3413C22.4478 43.7943 22.1488 42.7028 21.4435 41.726C20.504 40.6123 19.3735 39.7509 18.0528 39.1415C17.3379 38.7777 16.5845 38.5289 15.7927 38.395C15.2705 38.2438 14.7293 38.1576 14.1696 38.1364C12.4442 37.9151 10.8791 38.2984 9.4749 39.2854C9.17362 39.5648 8.8934 39.8612 8.63456 40.1751C8.32483 39.9594 8.04461 39.7105 7.79429 39.4286C8.86862 38.2535 9.28445 36.8751 9.04079 35.2933C8.83216 33.9143 8.42887 32.6528 7.831 31.5089H9.18272C9.85801 32.9527 10.2549 34.5398 10.3735 36.27C10.9551 35.6745 11.5153 35.0619 12.0541 34.4321C12.6938 33.5784 12.926 32.6211 12.7499 31.5605C12.7488 31.5513 12.7477 31.5421 12.7466 31.5329C12.7456 31.5249 12.7445 31.5169 12.7435 31.5089H14.1504C14.2089 31.7711 14.2679 32.0463 14.3285 32.3356C14.3285 32.3356 14.6142 32.017 14.9687 31.5089H17.2187C16.0141 32.3584 15.103 33.4869 15.103 33.4869C19.0424 33.132 19.6698 33.7619 21.5798 35.6798L21.5802 35.6802C21.7353 35.836 21.899 36.0003 22.0736 36.1733C22.0736 36.1733 22.6314 33.1328 21.38 31.5089H22.4225C22.4354 31.5285 22.4481 31.5482 22.4608 31.5681C22.4608 31.5681 22.4647 31.5474 22.4713 31.5089H23.441C23.4561 31.8314 23.4713 32.1689 23.4713 32.2494V32.4795C23.4327 33.5323 23.4327 34.5853 23.4713 35.6381C25.3537 33.7619 27.5951 32.8236 30.1946 32.8235C30.1167 32.7103 30.0375 32.593 29.9578 32.4743L29.9534 32.4676C29.7595 32.1787 29.5603 31.8816 29.355 31.6176H30.8625C30.9315 31.6922 31.0079 31.7664 31.0841 31.8401C31.1261 31.8808 31.1681 31.9215 31.2088 31.9623C31.2257 31.8976 31.2332 31.842 31.2414 31.7802C31.2477 31.7322 31.2548 31.6803 31.2671 31.6176H32.3684C32.2877 32.3826 32.2327 33.2259 32.745 33.8002C33.4803 34.6245 34.2336 35.4285 35.005 36.2123C34.979 34.6945 35.3372 33.2585 36.02 31.9046C36.0775 31.7907 36.1351 31.705 36.1926 31.6196L36.194 31.6176H37.4103C37.0383 32.2727 36.7386 32.9623 36.5117 33.6855C35.8246 35.7749 36.2409 37.7179 37.7007 39.3424L37.6712 39.3716C37.3806 39.6498 37.0775 39.9139 36.7726 40.1751C36.697 40.0891 36.6334 40.0109 36.5668 39.9289L36.5616 39.9225L36.52 39.8716C36.4208 39.75 36.3083 39.6143 36.1365 39.4286C35.3205 38.7088 34.3919 38.3069 33.2957 38.2226C29.8614 37.9691 26.9345 39.0606 24.5151 41.4966C23.6694 42.5084 23.2928 43.6761 23.3851 45ZM26.3334 35.022C23.1264 36.7554 23.6226 41.1623 23.6226 41.1623C26.9744 37.9192 29.3173 37.0946 34.0785 36.9408C34.0785 36.9408 30.5933 32.7196 26.3334 35.022ZM11.6177 37.3246C17.3754 37.3349 19.2358 38.0114 22.0736 41.1623C22.0736 41.1623 21.6507 35.7706 18.9755 34.6382C16.2045 33.4652 11.6177 37.3246 11.6177 37.3246Z" fill="#183FF6"/>
</svg>
