<svg xmlns="http://www.w3.org/2000/svg" version="1.1" xmlns:xlink="http://www.w3.org/1999/xlink" width="1000" height="1000"><g clip-path="url(#SvgjsClipPath1013)"><rect width="1000" height="1000" fill="#ffffff"></rect><g transform="matrix(5.645161290322581,0,0,5.645161290322581,150,150)"><svg xmlns="http://www.w3.org/2000/svg" version="1.1" xmlns:xlink="http://www.w3.org/1999/xlink" width="124" height="124"><svg width="124" height="124" viewBox="0 0 124 124" fill="none" xmlns="http://www.w3.org/2000/svg">
<rect width="124" height="124" fill="white"></rect>
<path d="M72.9989 74.2438H69.6514V51.1443H72.9989V74.2438Z" fill="#383838"></path>
<path d="M91.3293 74.2438H87.9818V54.4442H76.1315V51.1443H103.18V54.4442H91.3293V74.2438Z" fill="#383838"></path>
<path fill-rule="evenodd" clip-rule="evenodd" d="M40.1399 60.8236C40.2304 60.754 40.3126 60.6748 40.3867 60.5858C40.4413 60.5204 40.4914 60.4496 40.537 60.3737C42.3296 57.2069 43.0671 53.8334 42.7498 50.2531C42.7686 51.191 42.7498 52.1281 42.6931 53.0645C42.6753 52.9769 42.6577 52.8894 42.64 52.8019C42.6198 52.702 42.5997 52.6021 42.5795 52.5021C42.5417 52.8395 42.5038 53.1769 42.466 53.5142C42.4472 53.383 42.4282 53.2518 42.4093 53.1207C42.3904 52.9895 42.3715 52.8583 42.3526 52.7271C42.3205 53.0917 42.2258 53.1292 42.0689 52.8395C41.9177 53.1394 41.7662 53.1394 41.615 52.8395C41.4969 53.1196 41.4023 53.1196 41.3313 52.8395C41.2667 53.2738 41.1723 53.2738 41.0476 52.8395C40.9201 53.4266 40.8255 53.4266 40.764 52.8395C40.7319 52.9635 40.6971 53.0771 40.6628 53.1889C40.5911 53.4225 40.5218 53.6486 40.4846 53.9456C40.4838 53.9517 40.483 53.9578 40.4823 53.964C40.3141 55.3697 40.2589 55.4114 40.0852 56.1006C39.9139 56.7432 39.6681 57.2305 39.3476 57.7873C39.1753 58.0865 39.0538 58.3328 38.8937 58.5746C38.494 59.2181 38.1516 59.8552 37.757 60.4862C38.0369 60.426 38.3016 60.3696 38.5513 60.3175C38.2603 60.151 38.2603 59.9824 38.5513 59.8115C38.7709 60.0901 38.9979 60.0901 39.2322 59.8115C39.1929 59.677 39.136 59.677 39.0619 59.8115C38.9918 59.7048 39.0108 59.611 39.1186 59.5303C38.9674 59.4553 38.8538 59.3429 38.7782 59.193C38.8958 59.0111 39.0282 58.9923 39.1753 59.1368C39.2889 58.8368 39.4023 58.8368 39.5157 59.1368C39.4748 58.5408 39.6451 58.4472 40.0265 58.8556C39.6847 59.3465 39.8359 59.5715 40.4803 59.5303C40.5801 59.6829 40.618 59.8515 40.5937 60.0363C39.932 60.0498 39.7807 60.3124 40.1399 60.8236Z" fill="#183FF6"></path>
<path d="M28.5653 68.92C28.5665 68.7492 28.6432 68.6184 28.7933 68.5265C28.6114 68.3737 28.4406 68.2045 28.2824 68.0203C28.2447 68.1327 28.2062 68.2454 28.1684 68.3578C27.9434 68.1035 27.6974 67.8596 27.4309 67.627C27.5398 67.4624 27.6918 67.3681 27.8856 67.3452C28.142 67.4539 28.4066 67.5287 28.6793 67.5697V67.1207C28.8349 67.1383 28.9859 67.1185 29.1324 67.0635C29.1511 67.0313 29.1687 67.0019 29.1853 66.9753C29.194 66.9612 29.2024 66.9479 29.2106 66.9354C29.268 66.8473 29.311 66.7971 29.3397 66.7849C29.3895 66.7637 29.3959 66.8573 29.359 67.065C29.435 67.1026 29.5111 67.1402 29.5873 67.1777C29.6628 67.2149 29.7383 67.2521 29.8136 67.2895C29.8106 67.291 29.8076 67.2925 29.8046 67.294C29.7323 67.3298 29.6601 67.3663 29.5878 67.4021L29.5871 67.4025C29.6652 67.5223 29.7209 67.6537 29.7559 67.7958L29.7574 67.7942C29.7867 67.754 29.8174 67.7202 29.8494 67.6931C29.9866 67.5775 30.1485 67.5813 30.3344 67.7054C30.3497 67.7156 30.3652 67.7266 30.3808 67.7385C30.5425 67.8916 30.6377 68.0607 30.6651 68.2448C30.7402 68.0781 30.8342 67.9287 30.948 67.7958L30.9473 67.7951C30.3537 67.2374 29.7103 66.7307 29.0184 66.2769C30.1926 66.1017 31.366 65.9145 32.5369 65.7147C33.6156 65.6222 34.6746 65.6404 35.7134 65.7705C36.4209 65.867 37.1028 66.0542 37.757 66.3327C37.7777 66.3108 37.7974 66.2883 37.8161 66.2652C37.9299 66.124 38.0041 65.9592 38.0398 65.7705C38.0884 65.6966 38.1409 65.6654 38.1967 65.677C38.2193 65.6816 38.2425 65.6933 38.2663 65.7121C38.2852 65.7271 38.3045 65.7465 38.3242 65.7705C38.4132 65.6872 38.4887 65.5941 38.5507 65.4902C38.3381 65.1811 38.1875 64.8433 38.0976 64.4777C38.2444 64.1221 38.2062 63.7842 37.9836 63.4651C38.0103 63.4301 38.0321 63.3945 38.0488 63.3583C38.1063 63.2331 38.1031 63.1007 38.0398 62.9602C37.7396 62.7967 37.5318 62.5528 37.4164 62.2294C37.5349 62.0099 37.5349 61.7845 37.4164 61.5544C37.4396 61.3449 37.5152 61.1572 37.643 60.9924C37.6339 60.9591 37.6675 60.9113 37.7008 60.8641C37.7677 60.7689 37.8331 60.6759 37.5442 60.7088C37.5393 60.7093 37.5342 60.71 37.529 60.7106C37.1338 61.2166 36.7603 61.4983 36.2805 61.8919C35.4888 62.5412 34.5808 62.954 33.5573 63.129C31.7819 63.4161 30.0044 63.6416 28.2247 63.8041C28.9299 62.9928 29.592 62.1481 30.2105 61.2726C32.3649 57.5469 33.5187 53.5357 33.6713 49.2403C33.8568 46.0394 33.4603 42.9295 32.4807 39.9083C34.1927 40.9718 35.8753 42.0771 37.529 43.2249C39.1762 44.5744 39.5776 45.632 39.9708 47.1052C40.2453 47.9143 40.4244 48.6209 40.4814 49.4624C40.4815 49.4637 40.4816 49.465 40.4817 49.4663C40.5672 49.9311 40.6715 49.1985 40.7029 48.6065C40.7131 48.4121 40.7156 48.2329 40.7069 48.1162H41.16C41.1429 47.7062 41.1579 47.2961 41.2033 46.8877C41.2078 46.8471 41.2126 46.8066 41.2178 46.7661C41.2365 46.7845 41.2559 46.8039 41.2751 46.823C41.2941 46.8419 41.3132 46.8608 41.3318 46.8791C41.5477 46.5577 41.4528 46.3709 41.0475 46.317C41.0221 46.11 40.9836 45.9023 40.9334 45.6977C41.0352 45.4628 41.1105 45.2201 41.16 44.9684C41.043 44.4637 41.1715 44.0916 41.5445 43.854C41.5977 43.8201 41.6559 43.789 41.719 43.7606C41.7912 43.7281 41.8699 43.6992 41.9552 43.6739C41.9307 43.6619 41.9062 43.6499 41.8817 43.6378C41.8516 43.623 41.8214 43.6081 41.7913 43.5933C41.7704 43.583 41.7495 43.5727 41.7286 43.5624C41.7775 43.5128 41.8267 43.4635 41.8764 43.4146C42.2236 43.0724 42.5898 42.7471 42.9756 42.4384C42.8752 42.4056 42.7746 42.3709 42.6742 42.3377C42.6666 42.3352 42.659 42.3327 42.6514 42.3302C42.6464 42.3286 42.6413 42.327 42.6363 42.3254C43.1172 42.2399 43.5706 42.0884 43.9973 41.8748C43.8937 41.8433 43.8181 41.7869 43.7708 41.7061C41.9045 42.176 40.1258 41.971 38.4367 41.0881C37.081 40.1572 35.7567 39.1825 34.465 38.1648C41.876 36.6289 47.5698 32.6752 51.5438 26.3014C52.0974 25.2792 52.5891 24.2282 53.0187 23.1521C53.4956 24.7578 53.9488 26.3696 54.3796 27.9876C54.5689 29.0894 54.5889 30.1758 54.4374 31.2485C54.1334 33.2005 53.3377 34.9248 52.0532 36.4215C52.0495 36.4253 52.0463 36.4289 52.0436 36.4324C52.0193 36.4633 52.0303 36.4824 52.0412 36.5013C52.0472 36.5118 52.0532 36.5222 52.0532 36.5345C52.206 36.594 52.3581 36.6116 52.5078 36.5903C52.647 36.3498 52.8364 36.162 53.0749 36.0282C53.0509 36.0165 53.0269 36.0045 53.003 35.9925C52.9973 35.9896 52.9917 35.9868 52.986 35.984C52.9459 35.9637 52.9057 35.9434 52.8654 35.9236C52.8597 35.9208 52.8541 35.918 52.8484 35.9152C53.0773 35.6174 53.3233 35.4109 53.5858 35.2973C53.8795 35.3322 54.2021 35.3885 54.5514 35.4661C54.7997 35.6942 54.9123 35.9749 54.8905 36.3085C55.37 35.5472 55.8246 34.7602 56.2528 33.9472C56.8806 35.6452 57.429 37.3694 57.8981 39.1203C58.1843 40.1886 58.0818 40.6391 57.8981 41.3699C57.765 41.8995 57.556 42.3864 57.2732 42.8316C56.806 43.9312 56.0871 44.831 55.1171 45.5304C53.9492 46.5954 52.5891 47.3085 51.0362 47.6664C51.0351 47.6667 51.0339 47.6669 51.0328 47.6672C51.2057 47.7037 51.3509 47.7839 51.4675 47.9092C51.4945 47.9381 51.5199 47.9695 51.5438 48.0032C51.8124 47.8661 52.0967 47.7734 52.3953 47.7229C52.1349 47.6128 52.1722 47.5177 52.5078 47.4412C52.5269 47.5423 52.5653 47.655 52.6218 47.7787C52.7387 47.6059 52.8898 47.5495 53.0749 47.6099C52.9756 47.7876 52.825 47.9003 52.6218 47.9474C52.6813 48.025 52.7568 48.0813 52.8484 48.1162C52.9804 48.005 53.1128 47.8921 53.2452 47.7787C53.6067 47.8394 53.9666 47.9144 54.3234 48.0032C54.1472 48.1088 53.9964 48.2417 53.8701 48.398C53.8895 48.424 53.9059 48.4502 53.9191 48.4765C53.989 48.6155 53.9719 48.7578 53.8697 48.903L53.8688 48.9042C56.0798 47.8427 57.8968 46.3061 59.3167 44.2934C59.9207 45.9575 60.4692 47.6442 60.962 49.3533C61.2313 51.3485 60.38 52.6042 58.409 53.1205C57.9947 53.1766 57.5783 53.1947 57.1607 53.1763C57.521 53.243 57.8805 53.3555 58.2387 53.5138C58.4155 53.4543 58.5861 53.3796 58.7496 53.2893C58.8848 53.3282 58.885 53.3845 58.7496 53.458C59.1448 53.3603 59.5026 53.4547 59.8262 53.7398C59.9189 53.6479 60.0122 53.5551 60.106 53.4617L60.107 53.4608L60.108 53.4598C60.2025 53.3658 60.2976 53.2712 60.3934 53.1763C60.7612 53.3102 61.1209 53.2735 61.4714 53.0648C61.5824 53.1184 61.6776 53.1929 61.7557 53.2893C61.7982 53.1863 61.855 53.0918 61.926 53.0075C61.4466 52.5565 61.5602 52.3128 62.2666 52.2767C62.4429 51.9135 62.7086 51.6137 63.0619 51.377C63.1841 51.5991 63.1458 51.8062 62.9479 51.9963C62.9632 52.0014 62.9786 52.0065 62.994 52.0115C63.0165 52.019 63.039 52.0264 63.0616 52.0338C63.0641 52.0347 63.0667 52.0355 63.0693 52.0364C63.0851 52.0416 63.1009 52.0468 63.1167 52.052H63.1182C63.3817 52.0245 63.4868 51.9208 63.4336 51.7407C63.4259 51.715 63.4151 51.6876 63.401 51.6588C63.9301 51.5213 63.8927 51.3339 63.2885 51.0968C63.6665 50.9606 63.9495 51.0536 64.1384 51.377C64.5061 51.2043 64.847 51.2424 65.1602 51.49C65.1681 51.4744 65.1759 51.4587 65.1838 51.4431C65.1894 51.432 65.1949 51.4209 65.2005 51.4098C65.2069 51.3971 65.2132 51.3844 65.2196 51.3717C65.2226 51.3656 65.2257 51.3595 65.2287 51.3534C65.2434 51.3241 65.2581 51.2948 65.2728 51.2655L65.2729 51.2665C65.2781 51.31 65.284 51.3744 65.291 51.4516C65.3278 51.8538 65.3958 52.5998 65.5585 52.5026C65.502 52.6705 65.4455 52.7966 65.4032 52.8913C65.3483 53.0139 65.317 53.0838 65.3398 53.1236C65.3699 53.1763 65.4949 53.1763 65.7852 53.1763H65.7866V52.961V50.0284C64.8789 50.0284 63.9698 50.1971 63.4572 49.1288C62.6542 47.1047 62.0121 45.0426 61.5291 42.9431C61.8606 43.1917 62.22 43.3994 62.6073 43.5624C64.329 44.2157 66.1065 44.4411 67.9399 44.2375C69.2229 44.0936 70.4148 43.6993 71.5146 43.0561C71.1461 44.3189 70.6181 45.6681 70.0411 46.8791H72.7082C73.13 46.0426 73.4867 45.0685 73.7833 44.1804C74.2643 45.0877 74.8158 46.0616 75.4315 46.8791H78.8331C78.6082 46.6543 78.4373 46.4865 78.1517 46.2055C76.0978 44.4187 75.2099 42.1689 75.4862 39.4578C76.0009 37.6282 76.6061 35.829 77.3018 34.0602C78.8094 37.41 81.098 40.0902 84.167 42.1008C85.2497 42.683 86.384 43.1325 87.5701 43.4494C86.6766 44.2039 85.7569 44.9682 84.9059 45.6992C84.5089 46.0403 83.9456 46.5036 83.4873 46.8791H87.0028C87.2175 46.7442 87.4265 46.5953 87.6279 46.43V46.8791H89.2745C89.3666 46.6047 89.4789 46.229 89.6136 45.9794C90.0426 44.8216 90.7615 43.8652 91.7698 43.1119C93.15 42.044 94.5301 40.9762 95.9103 39.9083C95.6025 41.1259 95.3381 42.3625 95.1164 43.6182C94.9845 44.5895 94.8893 45.5645 94.8321 46.5416V46.8791H97.1023C97.1971 44.4424 97.6701 42.0813 98.5209 39.7953C99.5956 37.6823 101.242 35.9211 103.232 34.6223C103.328 34.5595 103.402 34.5093 103.402 34.5093C103.121 34.1046 102.665 33.58 102.379 33.1607C102.258 33.0032 102.211 32.8788 102.097 32.71C102.04 32.8226 96.3905 34.8597 93.3573 33.8915C90.2133 32.4803 87.6788 30.3632 85.7545 27.5385C84.3456 25.7337 83.3811 23.7093 82.8609 21.4658C82.6893 20.4595 82.7649 19.4472 82.8609 18.4295C83.0241 17.5277 83.1398 16.628 83.3171 15.7308C82.6694 15.5666 81.7991 15.2672 81.1609 15.0557C81.1043 15.2801 81.1374 15.169 81.1031 15.2802C80.5577 17.0524 79.5732 18.5152 78.1517 19.6668C77.4462 20.3547 76.6517 20.9367 75.769 21.4101C72.5229 22.9639 69.1187 23.5822 65.5571 23.2651C61.2516 23.138 57.4464 21.8594 54.6077 18.5425C53.8378 17.5046 53.158 16.211 52.6796 15C52.6232 15.015 52.6042 15.0332 52.5078 15.0557C51.9305 15.1907 51.1383 15.4155 50.5812 15.6177C50.6379 15.7303 50.6375 15.7314 50.6922 15.8438C51.4431 18.1376 51.4433 20.4249 50.6922 22.7031C49.4494 25.7918 47.5584 28.4345 45.0191 30.6307C42.2951 33.1057 39.1172 34.7533 35.4868 35.5777C32.2828 36.1421 29.3891 35.4492 26.806 33.4982C26.3497 34.0063 25.9148 34.532 25.5014 35.0728C27.6645 36.4108 29.2345 38.2466 30.2105 40.5819C31.9611 45.7016 31.9424 50.8 30.1542 55.875C29.9608 56.6766 29.6581 57.4271 29.2465 58.1248C27.5826 62.2117 24.388 64.7043 20 65.4902C20.0567 65.6588 20.0573 65.7149 20.114 65.8835C20.2953 66.3289 20.4629 66.7796 20.622 67.2337C20.679 67.3975 20.7345 67.5081 20.7375 67.514C20.7375 67.514 21.2654 67.3452 21.3032 67.3452C21.8414 67.1768 22.4086 67.1021 23.0047 67.1207C25.0407 67.1811 26.8945 67.7807 28.5653 68.92ZM67.0083 33.978C57.91 33.978 55.6354 23.4588 55.6354 23.4588C65.6851 27.5588 70.5746 27.2146 78.3813 23.4588C78.3813 23.4588 76.1067 33.978 67.0083 33.978ZM96.5811 36.9835C96.5811 36.9835 89.7542 44.4968 82.9336 38.4863C76.1132 32.4757 81.4172 24.2102 81.4172 24.2102C85.2903 32.6822 87.2059 35.4332 96.5811 36.9835ZM67.0083 42.2431C60.9428 42.2431 58.6682 33.2267 58.6682 33.2267C64.9254 36.628 68.5996 36.4675 75.3485 33.2267C75.3485 33.2267 73.0739 42.2431 67.0083 42.2431Z" fill="#183FF6"></path>
<path fill-rule="evenodd" clip-rule="evenodd" d="M42.7498 50.2531C42.7686 51.191 42.7498 52.1281 42.6931 53.0645L42.6645 52.9223L42.64 52.8019L42.5795 52.5021L42.5223 53.0075L42.466 53.5142C42.4472 53.383 42.4282 53.2518 42.4093 53.1207C42.3904 52.9895 42.3715 52.8583 42.3526 52.7271C42.3205 53.0917 42.2258 53.1292 42.0689 52.8395C41.9177 53.1394 41.7662 53.1394 41.615 52.8395C41.4969 53.1196 41.4023 53.1196 41.3313 52.8395C41.2667 53.2738 41.1723 53.2738 41.0476 52.8395C40.9201 53.4266 40.8255 53.4266 40.764 52.8395C40.7319 52.9635 40.6971 53.0771 40.6628 53.1889C40.5911 53.4225 40.5218 53.6486 40.4846 53.9456L40.4803 53.9628V49.4649L40.4814 49.4624L40.4817 49.4663C40.5672 49.9311 40.6715 49.1985 40.7029 48.6065C40.7179 48.4458 40.7193 48.2824 40.7069 48.1162H41.16H41.1615C41.1444 47.7059 41.158 47.2961 41.2033 46.8877C41.2078 46.8471 41.2126 46.8066 41.2178 46.7661L41.2751 46.823L41.2755 46.8234L41.2933 46.8423L41.3318 46.8791C41.5477 46.5577 41.4528 46.3709 41.0475 46.317C41.0221 46.11 40.9836 45.9023 40.9334 45.6977C41.0352 45.4628 41.1121 45.2186 41.1615 44.9669C41.0447 44.4626 41.1723 44.0912 41.5445 43.854C41.5977 43.8201 41.6559 43.789 41.719 43.7606C41.7912 43.7281 41.8699 43.6992 41.9552 43.6739L41.8989 43.6461L41.8817 43.6378L41.7913 43.5933L41.7286 43.5624C41.7775 43.5128 41.8267 43.4635 41.8764 43.4146C42.2236 43.0724 42.5898 42.7471 42.9756 42.4384L42.9769 42.4369C42.9225 42.4191 42.8567 42.3978 42.8022 42.3796C42.7875 42.3747 42.7728 42.3699 42.7581 42.3651C42.7456 42.3609 42.7331 42.3569 42.7206 42.3528C42.7051 42.3477 42.6897 42.3427 42.6742 42.3377L42.6514 42.3302L42.6363 42.3254C43.1172 42.2399 43.5706 42.0884 43.9973 41.8748C43.8937 41.8433 43.8181 41.7869 43.7708 41.7061C47.0158 40.7536 49.7226 38.9736 51.9998 36.4773C52.015 36.4606 52.0296 36.4457 52.0436 36.4324C52.0193 36.4633 52.0303 36.4824 52.0412 36.5013C52.0472 36.5118 52.0532 36.5222 52.0532 36.5345C52.206 36.594 52.3581 36.6116 52.5078 36.5903C52.647 36.3498 52.8364 36.162 53.0749 36.0282L53.032 36.0061L53.003 35.9925L52.986 35.984L52.9609 35.971C52.9292 35.9552 52.8973 35.9393 52.8654 35.9236L52.8484 35.9152C53.0773 35.6174 53.3233 35.4109 53.5858 35.2973C53.8795 35.3322 54.2021 35.3885 54.5514 35.4661C54.7997 35.6942 54.9123 35.9749 54.8905 36.3085C52.1343 40.4128 48.3143 43.0192 43.4302 44.1246C44.8999 45.4684 46.5264 46.5932 48.3095 47.4984C49.1989 47.8098 50.1067 47.8646 51.0328 47.6657L51.0362 47.6664L51.0328 47.6672C51.2057 47.7037 51.3509 47.7839 51.4675 47.9092C51.4945 47.9381 51.5199 47.9695 51.5438 48.0032C51.8124 47.8661 52.0967 47.7734 52.3953 47.7229C52.1349 47.6128 52.1722 47.5177 52.5078 47.4412C52.5269 47.5423 52.5653 47.655 52.6218 47.7787C52.7387 47.6059 52.8898 47.5495 53.0749 47.6099C52.9756 47.7876 52.825 47.9003 52.6218 47.9474C52.6813 48.025 52.7568 48.0813 52.8484 48.1162C52.9804 48.005 53.1128 47.8921 53.2452 47.7787C53.6067 47.8394 53.9666 47.9144 54.3234 48.0032C54.1472 48.1088 53.9964 48.2417 53.8701 48.398C53.8895 48.424 53.9059 48.4502 53.9191 48.4765C53.989 48.6155 53.9719 48.7578 53.8697 48.903C53.1856 49.2414 52.4668 49.523 51.7141 49.7467C52.855 50.6147 54.0271 51.44 55.2311 52.2208C55.8146 52.6599 56.4582 52.978 57.1607 53.1763C57.521 53.243 57.8805 53.3555 58.2387 53.5138C58.4155 53.4543 58.5861 53.3796 58.7496 53.2893C58.8848 53.3282 58.885 53.3845 58.7496 53.458C59.1448 53.3603 59.5026 53.4547 59.8262 53.7398C59.9189 53.6479 60.0122 53.5551 60.106 53.4617L60.107 53.4608L60.108 53.4598C60.2025 53.3658 60.2976 53.2712 60.3934 53.1763C60.7612 53.3102 61.1209 53.2735 61.4714 53.0648C61.5824 53.1184 61.6776 53.1929 61.7557 53.2893C61.7982 53.1863 61.855 53.0918 61.926 53.0075C61.4466 52.5565 61.5602 52.3128 62.2666 52.2767C62.4429 51.9135 62.7086 51.6137 63.0619 51.377C63.1841 51.5991 63.1458 51.8062 62.9479 51.9963L62.994 52.0115L63.0616 52.0338L63.0633 52.0345L63.0693 52.0364L63.1167 52.052H63.1182C63.3822 52.0246 63.487 51.9209 63.4336 51.7407C63.4259 51.715 63.4151 51.6876 63.401 51.6588C63.9301 51.5213 63.8927 51.3339 63.2885 51.0968C63.6665 50.9606 63.9495 51.0536 64.1384 51.377C64.5061 51.2043 64.847 51.2424 65.1602 51.49C65.1681 51.4744 65.1759 51.4587 65.1838 51.4431C65.1894 51.432 65.1949 51.4209 65.2005 51.4098C65.2069 51.3971 65.2132 51.3844 65.2196 51.3717L65.2287 51.3534L65.249 51.3139L65.2729 51.2665C65.2781 51.31 65.284 51.3744 65.291 51.4516C65.3278 51.8538 65.3958 52.5998 65.5585 52.5026C65.502 52.6705 65.4455 52.7966 65.4032 52.8913C65.3483 53.0139 65.317 53.0838 65.3398 53.1236C65.3699 53.1763 65.4949 53.1763 65.7852 53.1763H65.7866V52.961C65.7876 52.9951 65.7881 53.0291 65.7881 53.0632C65.7863 54.5743 65.7863 55.599 65.7881 57.2809C65.7881 63.4657 65.8037 69.4067 65.8415 75.4416C65.8422 75.5653 65.8646 76.0464 65.8891 76.5705L65.8947 76.6905H63.9961C64.1366 75.8706 64.9007 70.9295 63.2173 69.2926C61.3793 67.5054 56.3936 73.0495 56.3936 73.0495C59.8204 72.9068 62.2449 74.1706 63.9005 76.6905H61.8594C61.4225 76.1235 60.873 75.6448 60.1846 75.3036C58.1024 74.2723 55.7026 75.2868 53.7121 76.6905H49.307C50.8984 74.4096 53.1979 70.1776 51.0862 67.0385C48.0534 62.5303 39.7132 64.7844 39.7132 64.7844C45.0212 67.9312 46.3051 70.4255 47.7047 76.6905H44.9502C44.8813 76.17 44.7533 75.6783 44.566 75.2171C43.8193 72.3967 42.3817 69.978 40.2536 67.963C39.4687 67.3317 38.6362 66.7883 37.757 66.3327C37.7777 66.3108 37.7974 66.2883 37.8161 66.2652C37.9302 66.124 38.0056 65.959 38.0413 65.7705C38.0897 65.6969 38.1415 65.6657 38.1967 65.677C38.2193 65.6816 38.2425 65.6933 38.2663 65.7121C38.2852 65.7271 38.3045 65.7465 38.3242 65.7705C38.4132 65.6872 38.4887 65.5941 38.5507 65.4902C38.3381 65.1811 38.1875 64.8433 38.0976 64.4777C38.2444 64.1221 38.2062 63.7842 37.9836 63.4651C38.0103 63.4301 38.0321 63.3945 38.0488 63.3583C38.1065 63.2331 38.1043 63.1005 38.0413 62.9602C37.7409 62.7967 37.532 62.5528 37.4164 62.2294C37.5349 62.0099 37.5349 61.7845 37.4164 61.5544C37.4396 61.3449 37.5152 61.1572 37.643 60.9924C37.6339 60.9591 37.6675 60.9113 37.7008 60.8641C37.7677 60.7689 37.8331 60.6759 37.5442 60.7088L37.5926 60.6503C37.5967 60.6463 37.6007 60.6426 37.6045 60.6392C37.6081 60.636 37.6115 60.6331 37.6148 60.6303C37.6174 60.6281 37.6199 60.6259 37.6222 60.6239C37.6272 60.6194 37.6317 60.6149 37.6364 60.6101C37.6378 60.6086 37.6393 60.6072 37.6407 60.6057L37.643 60.6034C37.655 60.5914 37.668 60.578 37.6829 60.5623L37.7111 60.533C37.7223 60.5212 37.735 60.5084 37.7493 60.494L37.757 60.4862C38.0369 60.426 38.3016 60.3696 38.5513 60.3175C38.2603 60.151 38.2603 59.9824 38.5513 59.8115C38.7709 60.0901 38.9979 60.0901 39.2322 59.8115C39.1929 59.677 39.136 59.677 39.0619 59.8115C38.9918 59.7048 39.0108 59.611 39.1186 59.5303C38.9674 59.4553 38.8538 59.3429 38.7782 59.193C38.8958 59.0111 39.0282 58.9923 39.1753 59.1368C39.2889 58.8368 39.4023 58.8368 39.5157 59.1368C39.4748 58.5408 39.6451 58.4472 40.0265 58.8556C39.6847 59.3465 39.8359 59.5715 40.4803 59.5303C40.5801 59.6829 40.618 59.8515 40.5937 60.0363C39.932 60.0498 39.7807 60.3124 40.1399 60.8236C40.2304 60.754 40.3126 60.6748 40.3867 60.5858C40.3532 60.6557 40.31 60.7346 40.2551 60.8236C39.9785 61.2719 39.6407 61.705 39.3207 62.1149L39.2319 62.2294C41.1844 62.1045 43.1135 61.8032 45.0191 61.3284C46.513 60.5974 47.6283 59.4922 48.3659 58.0118C49.3693 55.3157 49.1434 52.7293 47.6861 50.253C46.0155 48.7057 44.1427 47.4882 42.0692 46.5987C42.4852 47.7793 42.7119 48.9973 42.7498 50.2531ZM57.1533 58.022C57.9098 55.7679 51.8444 52.7624 51.8444 52.7624C51.848 52.9958 51.8519 53.2203 51.8557 53.4364C51.9204 57.134 51.9427 58.4093 49.5698 61.0275C49.5698 61.0275 56.3951 60.2763 57.1533 58.022ZM60.9427 53.5138L59.4263 55.0165L63.2173 56.5193L60.9427 53.5138ZM61.701 58.7734L58.6682 56.5193L57.91 59.5248L61.701 58.7734ZM61.701 61.0275H57.91L59.4263 64.033L61.701 61.0275ZM48.8116 63.2816C52.8517 64.4697 53.4534 66.4849 54.119 70.7954C54.119 70.7954 58.6682 65.5358 57.1518 63.2816C55.6354 61.0275 48.8116 63.2816 48.8116 63.2816ZM63.9755 64.033L61.701 67.0385L63.9755 67.7899V64.033Z" fill="#183FF6"></path>
<path d="M30.3808 67.7385C30.5425 67.8916 30.6377 68.0607 30.6651 68.2448C30.7402 68.0781 30.8342 67.9287 30.948 67.7958L30.9473 67.7951L30.948 67.7942C34.0625 70.3627 36.4061 73.3283 37.9786 76.6905H35.3321C33.7619 73.6863 31.5062 71.0961 28.5653 68.92C28.5665 68.7492 28.6432 68.6184 28.7933 68.5265C28.6114 68.3737 28.4406 68.2045 28.2824 68.0203L28.2247 68.189L28.1684 68.3578C27.9434 68.1035 27.6974 67.8596 27.4309 67.627C27.5398 67.4624 27.6918 67.3681 27.8856 67.3452C28.142 67.4539 28.4066 67.5287 28.6793 67.5697V67.1207C28.8349 67.1383 28.9859 67.1185 29.1324 67.0635C29.1511 67.0313 29.1687 67.0019 29.1853 66.9753C29.194 66.9612 29.2024 66.9479 29.2106 66.9354C29.2677 66.8478 29.3108 66.7976 29.3397 66.7849C29.3895 66.7637 29.3959 66.8573 29.359 67.065C29.435 67.1026 29.5111 67.1402 29.5873 67.1777C29.6628 67.2149 29.7383 67.2521 29.8136 67.2895L29.8046 67.294L29.7011 67.3452L29.5871 67.401L29.5878 67.4021L29.5871 67.4025C29.6652 67.5223 29.7209 67.6537 29.7559 67.7958L29.7574 67.7942C29.7867 67.754 29.8174 67.7202 29.8494 67.6931C29.9866 67.5775 30.1485 67.5813 30.3344 67.7054C30.3497 67.7156 30.3652 67.7266 30.3808 67.7385Z" fill="#183FF6"></path>
<path fill-rule="evenodd" clip-rule="evenodd" d="M65.7852 103.104H63.7416C63.9501 100.744 63.3647 98.6069 61.9838 96.6943C60.1444 94.5139 57.931 92.8274 55.3451 91.6343C53.9455 90.9219 52.4705 90.4348 50.9203 90.1726C49.8978 89.8768 48.8381 89.7078 47.7424 89.6663C44.3643 89.2331 41.2999 89.9835 38.5507 91.9161C37.9608 92.4629 37.4122 93.0434 36.9054 93.658C36.299 93.2356 35.7504 92.7483 35.2603 92.1964C37.3637 89.8956 38.1778 87.1968 37.7008 84.1C37.2923 81.4 36.5027 78.9302 35.3321 76.6905H37.9786C39.3008 79.5174 40.0779 82.6246 40.31 86.0122C41.4487 84.8464 42.5455 83.6469 43.6005 82.4137C44.853 80.7424 45.3076 78.8682 44.9628 76.7917C44.9607 76.7736 44.9585 76.7556 44.9563 76.7376C44.9543 76.7219 44.9523 76.7062 44.9502 76.6905H47.7047C47.8194 77.2039 47.9348 77.7427 48.0534 78.3091C48.0534 78.3091 48.6128 77.6854 49.307 76.6905H53.7121C51.3536 78.3537 49.5698 80.5633 49.5698 80.5633C57.2828 79.8684 58.511 81.1017 62.2507 84.8568L62.2514 84.8574C62.5552 85.1625 62.8756 85.4842 63.2173 85.8229C63.2173 85.8229 64.3095 79.8701 61.8594 76.6905H63.9005C63.9257 76.7289 63.9507 76.7675 63.9755 76.8064C63.9755 76.8064 63.9832 76.7658 63.9961 76.6905H65.8947C65.9243 77.322 65.954 77.9827 65.954 78.1404V78.5909C65.8783 80.6522 65.8783 82.7137 65.954 84.775C69.6394 81.1017 74.0278 79.2646 79.1174 79.2644C78.9648 79.0428 78.8099 78.8132 78.6538 78.5807L78.6451 78.5676C78.2655 78.0019 77.8754 77.4203 77.4736 76.9033H80.425C80.5601 77.0494 80.7096 77.1947 80.8588 77.3391C80.9412 77.4188 81.0233 77.4984 81.1031 77.5783C81.1362 77.4517 81.1507 77.3427 81.1668 77.2217C81.1792 77.1277 81.1932 77.0261 81.2171 76.9033H83.3733C83.2155 78.4013 83.1076 80.0522 84.1107 81.1767C85.5504 82.7905 87.0253 84.3648 88.5356 85.8992C88.4846 82.9275 89.186 80.116 90.5228 77.4653C90.6354 77.2423 90.7482 77.0746 90.8607 76.9073L90.8634 76.9033H93.2448C92.5164 78.1859 91.9297 79.5361 91.4854 80.9522C90.1402 85.0428 90.9553 88.8471 93.8134 92.0276L93.7556 92.0848C93.1867 92.6295 92.5932 93.1465 91.9963 93.658C91.8483 93.4896 91.7238 93.3364 91.5933 93.1758L91.5832 93.1635L91.5017 93.0637C91.3076 92.8256 91.0872 92.5599 90.7509 92.1964C89.1532 90.7871 87.3352 90.0002 85.1889 89.8351C78.465 89.3389 72.7344 91.4759 67.9975 96.2453C66.3417 98.2263 65.6045 100.513 65.7852 103.104ZM71.5575 83.5688C65.2786 86.9626 66.2501 95.5907 66.2501 95.5907C72.8127 89.2412 77.3996 87.6266 86.7215 87.3256C86.7215 87.3256 79.898 79.061 71.5575 83.5688ZM42.746 88.077C54.0189 88.0971 57.6613 89.4217 63.2173 95.5907C63.2173 95.5907 62.3894 85.0345 57.1518 82.8174C51.7264 80.5207 42.746 88.077 42.746 88.077Z" fill="#183FF6"></path>
</svg></svg></g></g><defs><clipPath id="SvgjsClipPath1013"><rect width="1000" height="1000" x="0" y="0" rx="250" ry="250"></rect></clipPath></defs></svg>